<mxfile host="app.diagrams.net">
  <diagram name="Casos de Uso - GYMFINTECH" id="casos-uso-gymfintech">
    <mxGraphModel dx="800" dy="600" grid="1" gridSize="10" guides="1" tooltips="1" connect="1" arrows="1" fold="1" page="1" pageScale="1" pageWidth="827" pageHeight="1169">
      <root>
        <mxCell id="0"/>
        <mxCell id="1" parent="0"/>

        <!-- Sistema (elipse contenedora) -->
        <mxCell id="Sistema" value="Sistema GYMFINTECH" style="rounded=1;whiteSpace=wrap;html=1;strokeWidth=2;" vertex="1" parent="1">
          <mxGeometry x="120" y="40" width="560" height="500" as="geometry"/>
        </mxCell>

        <!-- Actores -->
        <mxCell id="ActorUsuario" value="Usuario Final" style="shape=actor;verticalLabelPosition=bottom;verticalAlign=top;html=1;" vertex="1" parent="1">
          <mxGeometry x="10" y="120" width="60" height="100" as="geometry"/>
        </mxCell>
        <mxCell id="ActorEntrenador" value="Entrenador" style="shape=actor;verticalLabelPosition=bottom;verticalAlign=top;html=1;" vertex="1" parent="1">
          <mxGeometry x="10" y="280" width="60" height="100" as="geometry"/>
        </mxCell>
        <mxCell id="ActorAdmin" value="Administrador" style="shape=actor;verticalLabelPosition=bottom;verticalAlign=top;html=1;" vertex="1" parent="1">
          <mxGeometry x="10" y="440" width="60" height="100" as="geometry"/>
        </mxCell>

        <!-- Casos de uso -->
        <mxCell id="Login" value="Iniciar Sesión / Registrarse" style="ellipse;whiteSpace=wrap;html=1;" vertex="1" parent="1">
          <mxGeometry x="200" y="80" width="180" height="60" as="geometry"/>
        </mxCell>
        <mxCell id="GestionPerfil" value="Gestionar Perfil" style="ellipse;whiteSpace=wrap;html=1;" vertex="1" parent="1">
          <mxGeometry x="430" y="80" width="160" height="60" as="geometry"/>
        </mxCell>
        <mxCell id="VerDashboard" value="Consultar Dashboard" style="ellipse;whiteSpace=wrap;html=1;" vertex="1" parent="1">
          <mxGeometry x="200" y="180" width="180" height="60" as="geometry"/>
        </mxCell>
        <mxCell id="RegistrarMedicion" value="Registrar Medición" style="ellipse;whiteSpace=wrap;html=1;" vertex="1" parent="1">
          <mxGeometry x="430" y="180" width="160" height="60" as="geometry"/>
        </mxCell>
        <mxCell id="ProgramarCita" value="Programar Cita" style="ellipse;whiteSpace=wrap;html=1;" vertex="1" parent="1">
          <mxGeometry x="200" y="280" width="180" height="60" as="geometry"/>
        </mxCell>
        <mxCell id="VerHistorial" value="Ver Historial de Accesos" style="ellipse;whiteSpace=wrap;html=1;" vertex="1" parent="1">
          <mxGeometry x="430" y="280" width="180" height="60" as="geometry"/>
        </mxCell>
        <mxCell id="RecibirNotificaciones" value="Recibir Notificaciones" style="ellipse;whiteSpace=wrap;html=1;" vertex="1" parent="1">
          <mxGeometry x="200" y="380" width="180" height="60" as="geometry"/>
        </mxCell>
        <mxCell id="GenerarReportes" value="Generar Reportes" style="ellipse;whiteSpace=wrap;html=1;" vertex="1" parent="1">
          <mxGeometry x="430" y="380" width="180" height="60" as="geometry"/>
        </mxCell>

        <!-- Relaciones Actor–Caso de uso -->
        <mxCell id="r1" edge="1" parent="1" source="ActorUsuario" target="Login" style="endArrow=none;html=1;">
          <mxGeometry relative="1" as="geometry"/>
        </mxCell>
        <mxCell id="r2" edge="1" parent="1" source="ActorUsuario" target="GestionPerfil" style="endArrow=none;html=1;">
          <mxGeometry relative="1" as="geometry"/>
        </mxCell>
        <mxCell id="r3" edge="1" parent="1" source="ActorUsuario" target="VerDashboard" style="endArrow=none;html=1;">
          <mxGeometry relative="1" as="geometry"/>
        </mxCell>
        <mxCell id="r4" edge="1" parent="1" source="ActorUsuario" target="RegistrarMedicion" style="endArrow=none;html=1;">
          <mxGeometry relative="1" as="geometry"/>
        </mxCell>
        <mxCell id="r5" edge="1" parent="1" source="ActorUsuario" target="ProgramarCita" style="endArrow=none;html=1;">
          <mxGeometry relative="1" as="geometry"/>
        </mxCell>
        <mxCell id="r6" edge="1" parent="1" source="ActorUsuario" target="VerHistorial" style="endArrow=none;html=1;">
          <mxGeometry relative="1" as="geometry"/>
        </mxCell>
        <mxCell id="r7" edge="1" parent="1" source="ActorUsuario" target="RecibirNotificaciones" style="endArrow=none;html=1;">
          <mxGeometry relative="1" as="geometry"/>
        </mxCell>

        <mxCell id="r8" edge="1" parent="1" source="ActorEntrenador" target="VerDashboard" style="endArrow=none;html=1;">
          <mxGeometry relative="1" as="geometry"/>
        </mxCell>
        <mxCell id="r9" edge="1" parent="1" source="ActorEntrenador" target="RegistrarMedicion" style="endArrow=none;html=1;">
          <mxGeometry relative="1" as="geometry"/>
        </mxCell>
        <mxCell id="r10" edge="1" parent="1" source="ActorEntrenador" target="ProgramarCita" style="endArrow=none;html=1;">
          <mxGeometry relative="1" as="geometry"/>
        </mxCell>

        <mxCell id="r11" edge="1" parent="1" source="ActorAdmin" target="Login" style="endArrow=none;html=1;">
          <mxGeometry relative="1" as="geometry"/>
        </mxCell>
        <mxCell id="r12" edge="1" parent="1" source="ActorAdmin" target="GestionPerfil" style="endArrow=none;html=1;">
          <mxGeometry relative="1" as="geometry"/>
        </mxCell>
        <mxCell id="r13" edge="1" parent="1" source="ActorAdmin" target="GenerarReportes" style="endArrow=none;html=1;">
          <mxGeometry relative="1" as="geometry"/>
        </mxCell>

      </root>
    </mxGraphModel>
  </diagram>
</mxfile>
